<svg width="60" height="60" viewBox="0 0 60 60" fill="none" xmlns="http://www.w3.org/2000/svg">
<path d="M59.7661 32.7705C59.4147 30.2982 58.5584 27.9537 57.2203 25.8027C56.0531 23.9255 54.5555 22.2559 52.7681 20.8369L52.7729 20.8324L34 6.41379C33.9845 6.4002 33.9684 6.38754 33.9577 6.38016C33.3335 5.90203 32.4884 5.63895 31.5791 5.63895C30.6686 5.63895 29.7906 5.90262 29.1078 6.38156C28.3739 6.89426 27.9543 7.57453 27.925 8.29875C27.8982 8.97422 28.2205 9.62426 28.8349 10.1311C30.0431 11.0843 31.2487 12.0585 32.4557 13.0336C33.6273 13.9805 34.8344 14.9556 36.0357 15.9049L13.042 15.8893C10.4124 15.8893 8.62192 17.1241 8.2536 19.1914C8.09176 20.097 8.37735 21.0926 9.01578 21.8551C9.69313 22.6636 10.6766 23.1095 11.7848 23.1095L13.5377 23.1105C15.9593 23.1105 18.3915 23.1047 20.8204 23.0988L23.1368 23.0934L2.26813 38.5327L2.18528 38.5931C1.01961 39.4868 0.256486 40.7393 0.0918377 42.0297C-0.032967 43.0072 0.19508 43.9005 0.751603 44.614C1.41488 45.4644 2.45047 45.9322 3.66781 45.9322C4.86371 45.9322 6.08399 45.4791 7.10539 44.6539L18.3748 35.4313C18.3267 35.8816 18.2682 36.5423 18.2749 37.0219C18.2875 37.7811 18.5313 39.3046 18.9172 40.5414C19.7145 43.0833 21.0576 45.4089 22.9089 47.4512C24.8353 49.5759 27.1814 51.2607 29.8816 52.4576C32.7364 53.7202 35.8051 54.3611 39.003 54.3611H39.0327C42.2408 54.3533 45.3193 53.7022 48.1832 52.4254C50.8879 51.2143 53.233 49.5227 55.152 47.3981C57.001 45.3455 58.3421 43.016 59.1379 40.4762C59.5312 39.2198 59.7847 37.9192 59.8899 36.6087C59.9882 35.3397 59.9459 34.0482 59.7661 32.7705ZM39.2369 44.9532C32.189 44.9532 26.4738 39.8407 26.4738 33.5337C26.4738 27.2272 32.1891 22.1147 39.2369 22.1147C46.2847 22.1147 51.9995 27.2272 51.9995 33.5337C51.9996 39.8407 46.2847 44.9532 39.2369 44.9532ZM46.597 32.5302C46.7008 34.4127 45.9489 36.1604 44.6287 37.4543C43.2856 38.7724 41.369 39.6004 39.2261 39.6004C37.0838 39.6004 35.1671 38.7724 33.8236 37.4543C32.5038 36.1604 31.7534 34.4128 31.8567 32.5317C31.958 30.7032 32.85 29.0892 34.1934 27.9464C35.5145 26.8227 37.2884 26.137 39.226 26.137C41.1641 26.137 42.9375 26.8228 44.2586 27.9464C45.6024 29.0892 46.4947 30.7022 46.597 32.5302Z" fill="black"/>
</svg>

