<svg width="60" height="60" viewBox="0 0 60 60" fill="none" xmlns="http://www.w3.org/2000/svg">
<path d="M51.6 15.9H47.94C47.62 15.9 47.35 16.01 47.13 16.23C46.91 16.45 46.8 16.72 46.8 17.04V31.8C46.8 33.36 46.24 34.7 45.12 35.82C44 36.94 42.64 37.5 41.04 37.5H16.74C16.42 37.5 16.15 37.61 15.93 37.83C15.71 38.05 15.6 38.32 15.6 38.64V42.3C15.6 42.98 15.83 43.55 16.29 44.01C16.75 44.47 17.32 44.7 18 44.7H42.9C43.9 44.7 44.76 45.06 45.48 45.78L52.08 52.38C52.24 52.54 52.43 52.64 52.65 52.68C52.87 52.72 53.09 52.7 53.31 52.62C53.53 52.54 53.7 52.4 53.82 52.2C53.94 52 54 51.78 54 51.54V18.3C54 17.62 53.77 17.05 53.31 16.59C52.85 16.13 52.28 15.9 51.6 15.9ZM42 30.3V8.69999C42 8.01999 41.77 7.44999 41.31 6.98999C40.85 6.52999 40.28 6.29999 39.6 6.29999H8.4C7.72 6.29999 7.15 6.52999 6.69 6.98999C6.23 7.44999 6 8.01999 6 8.69999V39.54C6 39.78 6.06 40 6.18 40.2C6.3 40.4 6.47 40.54 6.69 40.62C6.91 40.7 7.13 40.72 7.35 40.68C7.57 40.64 7.76 40.54 7.92 40.38L14.52 33.78C15.24 33.06 16.1 32.7 17.1 32.7H39.6C40.28 32.7 40.85 32.46 41.31 31.98C41.77 31.5 42 30.94 42 30.3Z" fill="black"/>
</svg>
