<svg width="56" height="38" viewBox="0 0 56 38" fill="none" xmlns="http://www.w3.org/2000/svg">
<path d="M28.0001 0V3.15347H55.8907V0H28.0001ZM3.62508 0.000217569L2.52305 2.07205L0.0585938 2.40436L1.84184 4.01731L1.42078 6.29499L3.62531 5.21933L5.82926 6.29477L5.4082 4.0172L7.19156 2.40425L4.72687 2.07205L3.62508 0.000217569ZM13.0001 0.000217569L11.898 2.07205L9.43336 2.40436L11.2166 4.01731L10.7959 6.29499L13.0001 5.21922L15.204 6.29466L14.7831 4.01709L16.5663 2.40425L14.1019 2.07205L13.0001 0.000217569ZM22.3751 0.000217569L21.273 2.07205L18.8084 2.40436L20.5916 4.01731L20.1709 6.29499L22.3751 5.21922L24.579 6.29466L24.1581 4.01709L25.9413 2.40425L23.4769 2.07205L22.3751 0.000217569ZM17.7574 5.91407L16.6552 7.9859L14.1909 8.31821L15.9742 9.93105L15.5531 12.2086L17.7574 11.1332L19.9614 12.2086L19.5407 9.93105L21.3237 8.31821L18.859 7.98579L17.7574 5.91407ZM8.38266 6.13133L7.28051 8.20338L4.81605 8.53569L6.59941 10.1485L6.17836 12.4261L8.38266 11.3507L10.5866 12.4261L10.1659 10.1485L11.9489 8.53569L9.48445 8.20338L8.38266 6.13133ZM28.0001 6.85065V10.1129H55.8907V6.85065H28.0001ZM3.62508 12.1794L2.52305 14.2512L0.0585938 14.5835L1.84184 16.1964L1.4209 18.474L3.62543 17.3985L5.82937 18.4739L5.40832 16.1964L7.19156 14.5835L4.72687 14.2512L3.62508 12.1794ZM13.0001 12.1794L11.898 14.2512L9.43336 14.5835L11.2166 16.1964L10.7959 18.474L13.0001 17.3985L15.204 18.4739L14.7831 16.1964L16.5663 14.5835L14.1019 14.2512L13.0001 12.1794ZM22.3751 12.1794L21.273 14.2512L18.8084 14.5835L20.5916 16.1964L20.1709 18.474L22.3751 17.3985L24.579 18.4739L24.1581 16.1964L25.9413 14.5835L23.4769 14.2512L22.3751 12.1794ZM28.0001 13.81V17.0723H55.8907V13.81H28.0001ZM8.38266 18.3103L7.28051 20.3822L4.81605 20.7145L6.59941 22.3274L6.17836 24.6049L8.38266 23.5295L10.5866 24.6049L10.1659 22.3274L11.9489 20.7145L9.48445 20.3823L8.38266 18.3103ZM17.7574 18.3105L16.6553 20.3822L14.1911 20.7145L15.9743 22.3274L15.5532 24.6049L17.7575 23.5295L19.9615 24.6049L19.5408 22.3274L21.3238 20.7145L18.8591 20.3821L17.7574 18.3105ZM28.0001 20.7694V24.0316H55.8907V20.7694H28.0001ZM0.109453 27.7288V30.991H55.8907V27.7288H0.109453ZM0.109453 34.6882V37.9504H55.8907V34.6882H0.109453Z" fill="black"/>
</svg>
