<svg width="60" height="60" viewBox="0 0 60 60" fill="none" xmlns="http://www.w3.org/2000/svg">
<g clip-path="url(#clip0_702_1143)">
<path d="M49.9609 0.0585938H10.0391C4.5498 0.0585938 0.0585938 4.5498 0.0585938 10.0391V49.961C0.0585938 55.4503 4.5498 59.9415 10.0391 59.9415H49.961C55.4503 59.9415 59.9415 55.4503 59.9415 49.961V10.0391C59.9414 4.5498 55.4502 0.0585938 49.9609 0.0585938ZM28.7495 30.5302C26.6711 32.6086 23.4045 33.5846 19.714 33.5846C18.7383 33.5846 17.8475 33.5419 17.1687 33.4146V44.1894H11.9938V15.98C13.8602 15.6408 16.448 15.386 19.9684 15.386C23.7866 15.386 26.5863 16.192 28.4105 17.7193C30.1073 19.1194 31.2101 21.3675 31.2101 24.04C31.21 26.755 30.3616 29.003 28.7495 30.5302ZM39.6071 44.614C37.1043 44.614 34.8561 44.02 33.3289 43.1714L34.347 39.3961C35.5346 40.1173 37.7831 40.881 39.6496 40.881C41.94 40.881 42.9585 39.9477 42.9585 38.5901C42.9585 37.1905 42.1102 36.4691 39.5647 35.5784C35.5345 34.1783 33.8382 31.9726 33.8805 29.5546C33.8805 25.9064 36.8923 23.0644 41.6857 23.0644C43.9766 23.0644 45.9703 23.6584 47.1578 24.2944L46.1398 27.985C45.2489 27.4761 43.5943 26.7973 41.7704 26.7973C39.9039 26.7973 38.8859 27.6881 38.8859 28.9605C38.8859 30.2759 39.8616 30.9123 42.4917 31.8455C46.2246 33.2027 47.9639 35.1116 48.0063 38.1662C48.0062 41.8991 45.0795 44.614 39.6071 44.614ZM25.9922 24.252C25.9922 27.6033 23.6164 29.5121 19.714 29.5121C18.6536 29.5121 17.8051 29.4697 17.1687 29.3002V19.6282C17.7204 19.5011 18.7384 19.3738 20.1809 19.3738C23.7866 19.3738 25.9922 21.0707 25.9922 24.252Z" fill="black"/>
</g>
<defs>
<clipPath id="clip0_702_1143">
<rect width="60" height="60" fill="white"/>
</clipPath>
</defs>
</svg>
