<svg width="60" height="60" viewBox="0 0 60 60" fill="none" xmlns="http://www.w3.org/2000/svg">
<path d="M14.25 31.2656L13.2656 32.2969L15.1406 34.0313L16.125 33C16.5469 33.2344 17.0156 33.4219 17.4375 33.4687L17.4844 34.875L20.0156 34.7812L19.9688 33.375C20.4375 33.2812 20.8594 33.0469 21.2344 32.8125L22.2656 33.7969L24 31.9219L22.9688 30.9375C23.2031 30.5156 23.3906 30.0469 23.4375 29.625L24.8438 29.5781L24.75 27L23.3438 27.0469C23.25 26.5781 23.0156 26.1563 22.7812 25.7813L23.7656 24.75L21.8906 23.0156L20.9062 24.0469C20.4844 23.8125 20.0156 23.625 19.5938 23.5781L19.5469 22.1719L17.0156 22.2656L17.0625 23.6719C16.5938 23.7656 16.1719 24 15.7969 24.2344L14.7656 23.25L13.0312 25.125L14.0625 26.1094C13.8281 26.5312 13.6406 27 13.5938 27.4219L12.1875 27.4688L12.2812 30L13.6875 29.9531C13.7812 30.4687 13.9688 30.8906 14.25 31.2656ZM18.4219 25.125C20.3438 25.0781 21.8906 26.5312 21.9375 28.4531C21.9844 30.375 20.5312 31.9219 18.6094 31.9687C16.6875 32.0156 15.1406 30.5625 15.0938 28.6406C15.0469 26.7656 16.5469 25.1719 18.4219 25.125ZM19.125 39.5156L19.0781 37.7813L17.7188 37.8281C17.6719 37.7344 17.6719 37.6406 17.625 37.5937L18.6094 36.6094L17.3438 35.3906L16.4062 36.375C16.3125 36.3281 16.2188 36.2812 16.125 36.2812L16.0781 34.9219L14.3437 34.9688L14.3906 36.3281C14.3438 36.3281 14.2969 36.375 14.2031 36.4219C14.1562 36.4219 14.1094 36.4688 14.1094 36.4688L13.125 35.5313L11.9063 36.7969L12.8906 37.7344C12.8438 37.8281 12.7969 37.9219 12.7969 38.0156L11.4375 38.0625L11.4844 39.7969L12.8438 39.75C12.8906 39.8438 12.9375 39.9375 12.9375 39.9844L11.9531 41.0156L13.2188 42.2344L14.2031 41.2031C14.2969 41.25 14.3438 41.25 14.4375 41.2969L14.4844 42.7031L16.2188 42.6562L16.1719 41.25C16.2188 41.25 16.2656 41.2031 16.3125 41.2031C16.3594 41.2031 16.3594 41.2031 16.4062 41.1563L17.4375 42.1406L18.6562 40.875L17.625 39.8906C17.6719 39.7969 17.7188 39.75 17.7188 39.6563L19.125 39.5156ZM16.2656 39.3281C15.9844 39.8437 15.3281 40.0781 14.8125 39.7969C14.2969 39.5156 14.0625 38.8594 14.3437 38.3438C14.625 37.8281 15.2812 37.5938 15.7969 37.875C16.3125 38.1563 16.5 38.8125 16.2656 39.3281ZM12 35.5313L10.3125 33.9844C10.3594 33.8438 10.4531 33.7031 10.5 33.5625L12.7969 33.5156L12.7031 30.6562L10.4062 30.7031C10.3594 30.5625 10.3125 30.4219 10.2188 30.2813L11.7656 28.5938L9.70312 26.625L8.15625 28.3125C8.0625 28.2656 7.96875 28.2187 7.875 28.2187C7.82812 28.2187 7.78125 28.1719 7.6875 28.125L7.64062 25.875L4.78125 25.9688L4.82812 28.2187C4.6875 28.2656 4.54688 28.3125 4.40625 28.4062L2.76563 26.8594L0.796875 28.9219L2.48437 30.4688C2.4375 30.6094 2.34375 30.75 2.29688 30.8906L0 30.9375L0.0937504 33.7969L2.4375 33.7031C2.48438 33.8437 2.53125 33.9375 2.625 34.0781L1.03125 35.8125L3.09375 37.7813L4.6875 36.0469C4.78125 36.0937 4.82813 36.0938 4.875 36.1406C4.92188 36.1406 4.96875 36.1875 5.01563 36.1875L5.10938 38.5781L7.96875 38.4844L7.875 36.1406C8.01562 36.0938 8.10937 36.0469 8.25 36L9.98438 37.5937L12 35.5313ZM7.17187 34.8281C5.76562 35.25 4.21875 34.4531 3.79687 33.0469C3.375 31.6406 4.17188 30.0938 5.57813 29.6719C6.98438 29.25 8.53125 30.0469 8.95312 31.4531C9.42187 32.8594 8.625 34.3594 7.17187 34.8281ZM41.625 14.8594C45.6562 14.8594 48.9375 18.1406 48.9375 22.1719C48.9375 26.2031 45.6562 29.4844 41.625 29.4844C37.5938 29.4844 34.3125 26.2031 34.3125 22.1719C34.3125 18.1406 37.5938 14.8594 41.625 14.8594ZM50.8125 31.3594H34.1719C31.7812 31.3594 29.3906 31.6875 27.6562 34.0313C26.9062 35.2031 19.9688 43.9219 19.9688 43.9219H10.2188C8.48438 43.9219 7.03125 45.375 7.03125 47.1094C7.03125 48.8438 8.48438 50.2969 10.2188 50.2969H21.3281C22.125 50.2969 22.9688 49.9688 23.5312 49.3594L30.0469 41.4375C30.2344 41.25 30.375 41.1563 30.7031 41.1563C31.2188 41.1563 31.6406 41.4844 31.6406 42.0938V56.4375H51.7969V42.3281C51.7969 41.8125 52.125 41.3906 52.7344 41.3906C53.25 41.3906 53.6719 41.7188 53.6719 42.3281V56.4844H60V40.5C60 35.4844 55.875 31.3594 50.8125 31.3594Z" fill="black"/>
</svg>
