<svg width="55" height="38" viewBox="0 0 55 38" fill="none" xmlns="http://www.w3.org/2000/svg">
<path d="M11.5528 12.9152C11.4116 12.8604 11.2415 12.8255 11.0509 12.826C10.915 12.826 10.7711 12.8426 10.616 12.8795C10.4405 12.9208 10.2849 12.9883 10.1538 13.0774C10.0736 13.1315 10.0071 13.1939 9.9467 13.2601C9.73961 13.1722 9.51464 13.1315 9.29174 13.1315C8.98312 13.1322 8.67307 13.2085 8.40839 13.3683C8.14434 13.5261 7.92486 13.7781 7.83986 14.0995C7.81381 14.1969 7.80078 14.2937 7.80078 14.389C7.80141 14.7047 7.93582 14.9834 8.11488 15.2164C8.38584 15.5663 8.7657 15.84 9.1045 16.0589C9.27395 16.1678 9.43369 16.262 9.56262 16.3389C9.62784 16.3771 9.6848 16.4115 9.73 16.4401C9.74239 16.4478 9.75057 16.4535 9.7609 16.4599V16.8513H11.8973H14.0336V16.395C14.155 16.3212 14.3203 16.2257 14.5013 16.1124C14.7914 15.9304 15.1206 15.7038 15.3922 15.4258C15.5281 15.2864 15.6501 15.1324 15.7406 14.9606C15.8306 14.7881 15.8889 14.5953 15.8889 14.3897C15.8889 14.2942 15.8765 14.1969 15.8504 14.0995C15.764 13.7781 15.5459 13.5261 15.2812 13.3683C15.0165 13.2085 14.7065 13.1322 14.3978 13.1315C14.1756 13.1315 13.952 13.1722 13.7449 13.2601C13.6846 13.1939 13.616 13.1315 13.5365 13.0774C13.4054 12.9883 13.2497 12.9208 13.0742 12.8795C12.9192 12.8426 12.7752 12.826 12.6394 12.826C12.4488 12.8254 12.2786 12.8604 12.1374 12.9152C12.1119 12.9248 12.0976 12.94 12.0742 12.9502V12.142H12.7189V11.7175H12.0742V11.0614H11.6161V11.7175H10.9714V12.142H11.6161V12.9502C11.5926 12.94 11.5779 12.9248 11.5528 12.9152ZM9.638 14.34C9.24843 14.4317 8.87945 14.6653 8.76418 14.9815C8.67236 14.8841 8.59752 14.7849 8.54819 14.6901C8.49339 14.585 8.46661 14.487 8.46661 14.389C8.46661 14.3438 8.47209 14.2974 8.48512 14.2497C8.52968 14.09 8.62707 13.9741 8.77109 13.8863C8.9152 13.7984 9.10441 13.7488 9.29165 13.7488C9.42471 13.7488 9.55229 13.7744 9.66198 13.8188C9.638 13.9296 9.6256 14.039 9.6256 14.1472C9.62569 14.2128 9.63117 14.2771 9.638 14.34ZM11.5117 13.9595C11.1249 14.0047 10.6387 14.1059 10.2978 14.2541C10.2951 14.2185 10.291 14.1829 10.2916 14.1472C10.291 13.9824 10.3307 13.829 10.4048 13.7189C10.4418 13.6629 10.4871 13.6165 10.546 13.5764C10.605 13.5362 10.6798 13.5018 10.7806 13.4776C10.887 13.4528 10.9754 13.4433 11.0509 13.4433C11.1565 13.4433 11.2347 13.4617 11.2971 13.4853C11.3903 13.5216 11.4534 13.5757 11.4938 13.6202C11.5006 13.6279 11.5062 13.6349 11.5116 13.6419L11.5117 13.9595ZM14.3976 13.7488C14.5856 13.7488 14.7748 13.7985 14.9182 13.8856C15.0623 13.9741 15.1604 14.0893 15.2043 14.249C15.2179 14.2974 15.2234 14.3438 15.2234 14.3897C15.2234 14.5368 15.1603 14.692 15.0328 14.8575C15.0218 14.8721 15.0081 14.8867 14.9971 14.9007C14.8381 14.5991 14.4457 14.3865 14.0534 14.3203C14.0588 14.2631 14.0636 14.2058 14.0636 14.1472C14.0636 14.0396 14.0526 13.9296 14.0287 13.8188C14.1384 13.7744 14.2653 13.7488 14.3976 13.7488ZM12.1777 13.642C12.199 13.6152 12.2298 13.5821 12.273 13.5503C12.3513 13.4956 12.4541 13.4446 12.6392 13.4434C12.714 13.4434 12.8031 13.4529 12.9095 13.4777C13.0096 13.5019 13.085 13.5363 13.1441 13.5764C13.2318 13.6368 13.2908 13.712 13.3346 13.8094C13.3765 13.9054 13.3985 14.0238 13.3978 14.1473C13.3985 14.1688 13.3951 14.1905 13.3936 14.2128C13.0288 14.0747 12.5432 13.983 12.1777 13.9487V13.642Z" fill="black"/>
<path d="M11.7059 22.9118C12.3807 22.9118 12.9274 22.3504 12.9274 21.6574C12.9274 20.9644 12.3807 20.4031 11.7059 20.4031C11.0317 20.4031 10.4844 20.9643 10.4844 21.6574C10.4844 22.3504 11.0316 22.9118 11.7059 22.9118Z" fill="black"/>
<path d="M5.47576 15.872C5.43605 15.8548 5.3887 15.844 5.33516 15.844C5.29742 15.844 5.25771 15.8497 5.21378 15.8605C5.16508 15.8739 5.12124 15.8948 5.08485 15.9229C5.06284 15.9394 5.0437 15.9598 5.02726 15.9801C4.96958 15.9528 4.90651 15.9394 4.84479 15.9394C4.75836 15.9394 4.67193 15.9636 4.59718 16.0145C4.52378 16.0635 4.46277 16.1424 4.4387 16.243C4.43115 16.2735 4.42773 16.3033 4.42773 16.3339C4.42773 16.4332 4.46547 16.5198 4.51551 16.593C4.59098 16.703 4.69727 16.7883 4.79196 16.857C4.83931 16.8914 4.88387 16.9207 4.92017 16.9449C4.93805 16.957 4.95377 16.9678 4.9668 16.9767C4.96949 16.9787 4.97228 16.9805 4.97506 16.9831V17.1053H5.5718H6.16846V16.9621C6.20206 16.9392 6.24797 16.9093 6.29873 16.8737C6.37968 16.8164 6.47159 16.7457 6.54769 16.6586C6.58542 16.6153 6.61965 16.5669 6.64508 16.5128C6.67041 16.4587 6.68686 16.3989 6.68686 16.3339C6.68686 16.3033 6.68281 16.2734 6.67589 16.243C6.65128 16.1425 6.5909 16.0635 6.51687 16.0145C6.44275 15.9636 6.35632 15.9394 6.26998 15.9394C6.20826 15.9394 6.14519 15.9528 6.08751 15.9801C6.07107 15.9598 6.05184 15.9394 6.02992 15.9229C5.9929 15.8949 5.94897 15.8739 5.90027 15.8605C5.85706 15.8497 5.81735 15.844 5.77889 15.844C5.72535 15.844 5.67881 15.8548 5.63901 15.872C5.63173 15.8752 5.6276 15.8796 5.62113 15.8828V15.6302H5.80082V15.4972H5.62113V15.291H5.49355V15.4972H5.31323V15.6302H5.49355V15.8828C5.48717 15.8796 5.48295 15.8752 5.47576 15.872Z" fill="black"/>
<path d="M6.58725 25.1893H4.50781V26.5016H6.58725V25.1893Z" fill="black"/>
<path d="M6.58725 17.3535H4.50781V18.0485H6.58725V17.3535Z" fill="black"/>
<path d="M3.98049 21.1362C4.13691 21.2449 4.95296 20.0956 7.42672 20.6563C7.42672 21.9743 7.42672 23.3184 7.42672 23.7396C7.42672 23.9986 7.4693 24.3028 7.59482 24.6178C7.77998 25.0907 8.15921 25.5871 8.82172 25.9473C9.48423 26.31 10.4129 26.5404 11.7056 26.5404C12.5677 26.5404 13.2672 26.4386 13.8351 26.2629C14.6869 26.0008 15.2403 25.5655 15.5634 25.0926C15.8885 24.6211 15.9845 24.1266 15.9845 23.7397C15.9845 23.3216 15.9845 21.9928 15.9845 20.6837C18.5358 20.069 19.3752 21.2463 19.5337 21.1362C19.7004 21.0204 19.9082 20.6347 19.8663 20.2096C18.3163 19.2404 16.9245 19.4294 15.9845 19.6229C15.9845 19.1984 15.9845 18.8039 15.9845 18.4843C15.9845 17.9854 15.9845 17.6628 15.9845 17.6628V17.3535H11.7056H7.42672V17.6628C7.42672 17.6628 7.42672 18.5251 7.42672 19.6031C6.48929 19.4185 5.14397 19.2735 3.64789 20.2096C3.60665 20.6346 3.81383 21.0203 3.98049 21.1362ZM8.09201 21.677H9.99724C9.99724 21.67 9.9958 21.6637 9.9958 21.6574C9.9958 20.6868 10.7619 19.9009 11.7056 19.9009C11.7475 19.9009 11.7872 19.9041 11.8283 19.9072V17.9707H15.3192C15.3192 18.6173 15.3192 20.1701 15.3192 21.5224H13.4085C13.4126 21.5663 13.4153 21.6115 13.4153 21.6574C13.4153 22.6279 12.65 23.4138 11.7056 23.4138C11.6645 23.4138 11.624 23.4107 11.5829 23.4074V25.9205C10.8366 25.9117 10.2469 25.8188 9.78745 25.6768C9.05909 25.4496 8.65237 25.111 8.40889 24.7604C8.16739 24.4098 8.09201 24.033 8.09201 23.7396C8.09201 23.4284 8.09201 22.6133 8.09201 21.677Z" fill="black"/>
<path d="M6.14455 20.6869C5.51897 20.6869 5.07388 20.8193 4.75781 20.9618V21.8712C5.26804 21.6236 5.87017 21.3284 6.33798 21.0974V20.6907C6.27348 20.6882 6.20834 20.6869 6.14455 20.6869Z" fill="black"/>
<path d="M4.75781 23.2191V24.9189H6.33798V22.4459C5.87565 22.6827 5.1693 23.0225 4.75781 23.2191Z" fill="black"/>
<path d="M6.18435 19.2811C6.23646 19.2811 6.28722 19.283 6.33798 19.2842V18.3959H4.75781V19.493C5.21593 19.3518 5.68778 19.2811 6.18435 19.2811Z" fill="black"/>
<path d="M6.68644 21.1362C6.68644 21.1362 4.10774 22.4103 3.81557 22.5261C3.52475 22.6419 3.73327 23.1822 3.81557 23.298C3.89922 23.4139 3.89922 23.8383 4.06525 23.8002C4.23254 23.7614 4.39857 23.1822 4.39857 23.1822C4.39857 23.1822 6.43685 22.2168 6.64538 22.0628C6.8531 21.9088 6.68644 21.1362 6.68644 21.1362Z" fill="black"/>
<path d="M17.8781 15.872C17.8383 15.8548 17.791 15.844 17.7375 15.844C17.6998 15.844 17.6593 15.8497 17.6167 15.8605C17.5673 15.8739 17.5235 15.8948 17.4871 15.9229C17.4645 15.9394 17.4452 15.9598 17.4288 15.9801C17.3712 15.9528 17.308 15.9394 17.2464 15.9394C17.16 15.9394 17.0736 15.9636 16.9995 16.0145C16.9261 16.0635 16.8651 16.1424 16.841 16.243C16.8335 16.2735 16.8301 16.3033 16.8301 16.3339C16.8301 16.3988 16.8465 16.4587 16.8719 16.5128C16.8967 16.5669 16.9309 16.6153 16.9686 16.6586C17.0447 16.7457 17.1366 16.8163 17.2176 16.8737C17.2683 16.9093 17.3142 16.9392 17.3478 16.9621V17.1053H17.9445H18.5412V16.9831C18.5439 16.9805 18.5466 16.9787 18.5501 16.9767C18.5632 16.9679 18.5783 16.957 18.5968 16.9449C18.6332 16.9207 18.677 16.8914 18.7251 16.857C18.8198 16.7883 18.9253 16.703 19.0008 16.593C19.0516 16.5198 19.0886 16.4332 19.0886 16.3339C19.0886 16.3033 19.0859 16.2734 19.0776 16.243C19.0543 16.1425 18.9926 16.0635 18.9192 16.0145C18.8445 15.9636 18.7588 15.9394 18.673 15.9394C18.61 15.9394 18.5475 15.9528 18.4892 15.9801C18.4728 15.9598 18.4536 15.9394 18.4316 15.9229C18.396 15.8949 18.352 15.8739 18.3027 15.8605C18.2595 15.8497 18.2191 15.844 18.1813 15.844C18.1285 15.844 18.0805 15.8548 18.0407 15.872C18.0335 15.8752 18.0294 15.8796 18.0229 15.8828V15.6302H18.204V15.4972H18.0229V15.291H17.8954V15.4972H17.7157V15.6302H17.8954V15.8828C17.8892 15.879 17.885 15.8752 17.8781 15.872Z" fill="black"/>
<path d="M19.0079 25.1893H16.9277V26.5016H19.0079V25.1893Z" fill="black"/>
<path d="M19.0079 17.3535H16.9277V18.0485H19.0079V17.3535Z" fill="black"/>
<path d="M17.3691 20.6869C17.3061 20.6869 17.2408 20.6882 17.1758 20.6907V21.0974C17.6435 21.3284 18.2456 21.6237 18.7566 21.8712V20.9618C18.4404 20.8193 17.9946 20.6869 17.3691 20.6869Z" fill="black"/>
<path d="M17.1758 22.4459V24.9189H18.7566V23.2192C18.3444 23.0225 17.638 22.6827 17.1758 22.4459Z" fill="black"/>
<path d="M17.3293 19.2811C17.8259 19.2811 18.2984 19.3518 18.7566 19.493V18.3959H17.1758V19.2842C17.2265 19.283 17.2772 19.2811 17.3293 19.2811Z" fill="black"/>
<path d="M19.4515 23.8002C19.6175 23.8383 19.6175 23.4139 19.7012 23.298C19.7842 23.1822 19.9919 22.6419 19.7012 22.5261C19.4097 22.4103 16.8303 21.1362 16.8303 21.1362C16.8303 21.1362 16.6644 21.9088 16.8722 22.0628C17.08 22.2168 19.1183 23.1822 19.1183 23.1822C19.1183 23.1822 19.2848 23.7614 19.4515 23.8002Z" fill="black"/>
<path d="M55 0.771606H0V10.0508H55V0.771606Z" fill="black"/>
<path d="M55 28.6091H0V37.8883H55V28.6091Z" fill="black"/>
</svg>
