<svg width="60" height="60" viewBox="0 0 60 60" fill="none" xmlns="http://www.w3.org/2000/svg">
<path d="M57.5 30C57.5 30.8862 57.458 31.7627 57.376 32.6275C55.9595 31.2102 54.301 30.035 52.4678 29.1687C52.0305 17.1369 42.1388 7.51708 30 7.51708C17.583 7.51708 7.51708 17.583 7.51708 30C7.51708 42.1388 17.1369 52.0305 29.1687 52.4678C30.035 54.301 31.2102 55.9595 32.6275 57.376C31.7627 57.458 30.8862 57.5 30 57.5C14.8122 57.5 2.5 45.1878 2.5 30C2.5 14.8122 14.8122 2.5 30 2.5C45.1878 2.5 57.5 14.8122 57.5 30Z" fill="#0F0F0F"/>
<path d="M32.5 29.703L34.6065 30.9192C33.2117 31.9505 31.9755 33.1842 30.9415 34.5767L28.7935 33.3365C28.3592 33.0858 28.0288 32.7245 27.8168 32.3088C27.5 31.8185 27.5 31.1667 27.5 31.1667V15C27.5 13.6193 28.6193 12.5 30 12.5C31.3807 12.5 32.5 13.6193 32.5 15V29.703Z" fill="#0F0F0F"/>
<path d="M38.2322 44.2678C39.2084 43.2915 40.7914 43.2915 41.7677 44.2678L43.3704 45.8705L48.1182 41.1228C49.0947 40.1465 50.6774 40.1465 51.6537 41.1228C52.6302 42.0993 52.6302 43.682 51.6537 44.6585L45.3032 51.009C45.0872 51.225 44.8417 51.3932 44.5794 51.5135C43.6219 52.0735 42.3717 51.943 41.5507 51.1217L38.2322 47.8032C37.2559 46.827 37.2559 45.244 38.2322 44.2678Z" fill="#0F0F0F"/>
<path fill-rule="evenodd" clip-rule="evenodd" d="M45 60C53.2843 60 60 53.2843 60 45C60 36.7158 53.2843 30 45 30C36.7158 30 30 36.7158 30 45C30 53.2843 36.7158 60 45 60ZM45 55.0453C39.4522 55.0453 34.9548 50.5478 34.9548 45C34.9548 39.4522 39.4522 34.9548 45 34.9548C50.5478 34.9548 55.0453 39.4522 55.0453 45C55.0453 50.5478 50.5478 55.0453 45 55.0453Z" fill="#0F0F0F"/>
</svg>
