<svg width="60" height="60" viewBox="0 0 60 60" fill="none" xmlns="http://www.w3.org/2000/svg">
<path d="M48.6379 46.9894L38.5466 30.0019L48.6379 13.0069L53.5091 29.9981L48.636 46.9856L48.6379 46.9894ZM26.1491 45.3581L13.4591 32.7638H33.6323L43.7198 49.7531L26.1473 45.3619L26.1491 45.3581ZM26.1491 14.6419L43.7198 10.2506L33.6341 27.24H13.4573L26.1491 14.6419ZM58.1179 24.2194L51.9641 1.88251L28.9935 7.86938L25.596 13.7044L18.696 13.6538L1.88477 30.0019L18.6979 46.3519L25.5941 46.2975L29.001 52.1325L51.9623 58.1175L58.1179 35.79L54.6229 30.0019L58.1179 24.2194Z" fill="black"/>
</svg>
