<svg
   width="195.92012mm"
   height="195.91588mm"
   viewBox="0 0 195.92012 195.91588"
   version="1.1"
   id="svg5"
   xml:space="preserve"
   xmlns:inkscape="http://www.inkscape.org/namespaces/inkscape"
   xmlns:sodipodi="http://sodipodi.sourceforge.net/DTD/sodipodi-0.dtd"
   xmlns="http://www.w3.org/2000/svg"
   xmlns:svg="http://www.w3.org/2000/svg"><sodipodi:namedview
     id="namedview7"
     pagecolor="#ffffff"
     bordercolor="#000000"
     borderopacity="0.25"
     inkscape:showpageshadow="2"
     inkscape:pageopacity="0.0"
     inkscape:pagecheckerboard="0"
     inkscape:deskcolor="#d1d1d1"
     inkscape:document-units="mm"
     showgrid="false" /><defs
     id="defs2" /><g
     inkscape:label="Capa 1"
     inkscape:groupmode="layer"
     id="layer1"
     transform="translate(-7.61608,-11.721132)"><path
       fill="#f05133"
       d="M 199.84066,100.95217 114.3009,15.416669 c -4.92529,-4.927383 -12.91443,-4.927383 -17.843919,0 l -17.76082,17.765102 22.530419,22.530422 c 5.23652,-1.769736 11.24068,-0.58183 15.4133,3.592651 4.19817,4.200335 5.37512,10.255677 3.56066,15.511451 l 21.71811,21.715941 c 5.25577,-1.812365 11.3153,-0.639844 15.51137,3.562844 5.86347,5.86337 5.86347,15.36422 0,21.23194 -5.86764,5.86557 -15.36849,5.86557 -21.23832,0 -4.40929,-4.41357 -5.50098,-10.89528 -3.26434,-16.32801 L 112.67195,84.745674 v 53.297386 c 1.42853,0.70754 2.77817,1.6503 3.96793,2.83998 5.86339,5.86347 5.86339,15.3643 0,21.23413 -5.86338,5.86128 -15.37067,5.86128 -21.229774,0 -5.863471,-5.87193 -5.863471,-15.37284 0,-21.23413 1.4498,-1.44771 3.127835,-2.54359 4.918844,-3.27708 V 83.811774 C 98.537941,83.078445 96.864188,81.993046 95.410106,80.534696 90.968813,76.095578 89.900569,69.575433 92.17775,64.121425 L 69.967088,41.906495 11.311678,100.55561 c -4.9274641,4.93166 -4.9274641,12.9208 0,17.84819 l 85.54396,85.53767 c 4.925292,4.92738 12.912332,4.92738 17.844002,0 l 85.14102,-85.14103 c 4.92739,-4.92748 4.92739,-12.92088 0,-17.84827 z"
       id="path9"
       style="stroke-width:2.13215" /></g></svg>
