<svg width="60" height="60" viewBox="0 0 60 60" fill="none" xmlns="http://www.w3.org/2000/svg">
<g clip-path="url(#clip0_702_1223)">
<path d="M60 14.1667V9.16663C55.8841 9.16663 51.9327 10.0454 48.3532 11.7112C48.3375 11.5194 48.3299 11.3216 48.335 11.1196C48.378 9.39784 49.2623 8.16386 51.118 7.23585L48.882 2.76385C45.3039 4.55284 43.3334 7.56667 43.3334 11.25C43.3334 12.4697 43.5505 13.5674 43.7924 14.4122C42.5609 15.3169 41.3977 16.3309 40.3162 17.4518C39.1914 18.6178 38.1803 19.8698 37.2866 21.1926C36.8283 20.5465 36.4118 19.7365 36.2425 18.7907C35.933 17.0614 36.5098 15.1516 37.9567 13.1141L33.8802 10.219C31.6062 13.4208 30.7502 16.6287 31.3356 19.7535C31.8748 22.6314 33.5051 24.6852 34.7407 25.8794C33.4752 28.8617 32.7284 32.0737 32.5459 35.3958C31.8756 35.1211 31.3049 34.7183 30.8401 34.187C29.7456 32.9361 29.1669 30.9119 29.1669 28.3333H24.1669C24.1669 35.0297 27.2992 39.5209 32.5002 40.5868V54.1666H0V59.1667H60V54.1666H43.0492C39.9409 50.4928 38.0518 45.988 37.6037 41.2165C38.3888 41.3599 39.2732 41.4553 40.2405 41.4553C43.3644 41.4553 47.3479 40.4646 51.6003 36.9206L48.3995 33.0794C43.599 37.08 39.4977 36.6551 37.5193 36.0707C37.6262 33.2913 38.2106 30.6022 39.2324 28.1052C40.3352 28.4787 41.8154 28.8423 43.5941 28.9535C43.9337 28.9748 44.2912 28.9868 44.6654 28.9868C48.1386 28.9868 53.0338 27.9485 58.2672 23.5873L55.0663 19.7461C49.326 24.5299 44.3544 24.3054 41.6824 23.6274C42.3519 22.6761 43.0963 21.7714 43.9146 20.9232C48.1179 16.5662 53.8303 14.1667 60 14.1667Z" fill="black"/>
<path d="M21.6667 0.833313C17.531 0.833313 14.1667 4.19777 14.1667 8.33331C14.1667 9.20976 14.3191 10.0508 14.5966 10.8333H0V15.8333H21.6667C25.8023 15.8333 29.1667 12.4689 29.1667 8.33331C29.1667 4.19788 25.8023 0.833313 21.6667 0.833313Z" fill="black"/>
<path d="M18.3333 20.8334H0V25.8334H18.3333V20.8334Z" fill="black"/>
</g>
<defs>
<clipPath id="clip0_702_1223">
<rect width="60" height="60" fill="white"/>
</clipPath>
</defs>
</svg>
