<svg width="60" height="60" viewBox="0 0 60 60" fill="none" xmlns="http://www.w3.org/2000/svg">
<path d="M44.9992 17.9C44.8492 17.875 44.6742 17.875 44.5242 17.9C41.0742 17.775 38.3242 14.95 38.3242 11.45C38.3242 7.875 41.1992 5 44.7742 5C48.3492 5 51.2242 7.9 51.2242 11.45C51.1992 14.95 48.4492 17.775 44.9992 17.9Z" stroke="#292D32" stroke-width="3.75" stroke-linecap="round" stroke-linejoin="round"/>
<path d="M42.4246 36.1C45.8496 36.675 49.6246 36.075 52.2746 34.3C55.7996 31.95 55.7996 28.1 52.2746 25.75C49.5996 23.9751 45.7746 23.3751 42.3496 23.9751" stroke="#292D32" stroke-width="3.75" stroke-linecap="round" stroke-linejoin="round"/>
<path d="M14.9242 17.9C15.0742 17.875 15.2492 17.875 15.3992 17.9C18.8492 17.775 21.5992 14.95 21.5992 11.45C21.5992 7.875 18.7242 5 15.1492 5C11.5742 5 8.69922 7.9 8.69922 11.45C8.72422 14.95 11.4742 17.775 14.9242 17.9Z" stroke="#292D32" stroke-width="3.75" stroke-linecap="round" stroke-linejoin="round"/>
<path d="M17.4996 36.1C14.0746 36.675 10.2996 36.075 7.64961 34.3C4.12461 31.95 4.12461 28.1 7.64961 25.75C10.3246 23.9751 14.1496 23.3751 17.5746 23.9751" stroke="#292D32" stroke-width="3.75" stroke-linecap="round" stroke-linejoin="round"/>
<path d="M29.9993 36.575C29.8493 36.55 29.6743 36.55 29.5243 36.575C26.0743 36.45 23.3242 33.625 23.3242 30.125C23.3242 26.55 26.1993 23.6749 29.7743 23.6749C33.3493 23.6749 36.2243 26.575 36.2243 30.125C36.1993 33.625 33.4493 36.475 29.9993 36.575Z" stroke="#292D32" stroke-width="3.75" stroke-linecap="round" stroke-linejoin="round"/>
<path d="M22.7258 44.45C19.2008 46.8 19.2008 50.65 22.7258 53C26.7259 55.675 33.2759 55.675 37.2759 53C40.8009 50.65 40.8009 46.8 37.2759 44.45C33.3009 41.8 26.7259 41.8 22.7258 44.45Z" stroke="#292D32" stroke-width="3.75" stroke-linecap="round" stroke-linejoin="round"/>
</svg>
