<svg width="55" height="55" viewBox="0 0 55 55" fill="none" xmlns="http://www.w3.org/2000/svg">
<g clip-path="url(#clip0_702_1243)">
<path d="M52.8254 42.3094L43.8523 33.3474C42.9583 32.4535 41.5028 32.4535 40.6089 33.3474L39.5661 34.3902L37.5578 32.3819C40.0065 28.8594 41.2507 24.7473 41.2507 20.6268C41.2507 15.3436 39.2337 10.0604 35.2112 6.03795C27.1663 -2.00695 14.0787 -2.00695 6.03376 6.03795C-2.01125 14.083 -2.01125 27.1705 6.03376 35.2154C10.0562 39.2264 15.3395 41.2435 20.6225 41.2435C24.7429 41.2435 28.8546 39.9994 32.377 37.5566L34.3895 39.5668L33.3431 40.6131C32.4493 41.5071 32.4493 42.9626 33.3431 43.8563L42.3164 52.8297C43.7603 54.2737 45.6628 54.9957 47.565 54.9957C49.4675 54.9957 51.3814 54.2737 52.8252 52.8297C55.7249 49.9302 55.7249 45.2087 52.8254 42.3094ZM36.6208 21.769H33.5063C32.957 27.991 27.9909 32.9575 21.7685 33.5068V36.6213H19.4765V33.5068C13.2543 32.9575 8.28815 27.991 7.73875 21.769H4.62425V19.477H7.73875C8.28815 13.2551 13.2544 8.28861 19.4765 7.73921V4.62471H21.7685V7.73921C27.9909 8.28861 32.957 13.2551 33.5063 19.477H36.6208V21.769ZM43.0442 44.6658L41.4237 43.0453L43.0442 41.4248L44.6645 43.0453L43.0442 44.6658ZM46.2857 47.9068L44.6652 46.2863L46.2857 44.6659L47.9062 46.2863L46.2857 47.9068Z" fill="black"/>
<path d="M29.6964 19.477H31.2087C30.6754 14.5189 26.7271 10.5706 21.7688 10.0372V11.55H19.4769V10.0372C14.5188 10.5705 10.5704 14.5188 10.0371 19.477H11.5494V21.769H10.0371C10.5704 26.7271 14.5188 30.6755 19.4769 31.2088V29.6971H21.7688V31.2088C26.7269 30.6756 30.6753 26.7272 31.2087 21.769H29.6964V19.477Z" fill="black"/>
</g>
<defs>
<clipPath id="clip0_702_1243">
<rect width="55" height="55" fill="white"/>
</clipPath>
</defs>
</svg>
