<svg width="60" height="60" viewBox="0 0 60 60" fill="none" xmlns="http://www.w3.org/2000/svg">
<g clip-path="url(#clip0_702_1176)">
<path d="M26.6711 25.5458L28.9196 32.5877H21.5805L23.7866 25.5458C24.2959 23.8489 24.7199 21.8552 25.1439 20.2008H25.2287C25.653 21.8554 26.1195 23.8065 26.6711 25.5458ZM59.9414 10.0391V49.961C59.9414 55.4503 55.4502 59.9415 49.9609 59.9415H10.0391C4.5498 59.9414 0.0585938 55.4502 0.0585938 49.9609V10.0391C0.0585938 4.5498 4.5498 0.0585938 10.0391 0.0585938H49.961C55.4502 0.0585938 59.9414 4.5498 59.9414 10.0391ZM37.9976 44.635L28.7071 16.0439H22.0473L12.8845 44.635H18.272L20.7326 36.5326H29.8105L32.3982 44.635H37.9976ZM46.8187 23.9762H41.5584V44.635H46.8187V23.9762ZM47.1155 18.2072C47.073 16.5952 45.9703 15.3652 44.1885 15.3652C42.4492 15.3652 41.2616 16.5952 41.2616 18.2072C41.2616 19.7769 42.4068 21.0069 44.1461 21.0069C45.9702 21.0068 47.1155 19.7768 47.1155 18.2072Z" fill="black"/>
</g>
<defs>
<clipPath id="clip0_702_1176">
<rect width="60" height="60" fill="white"/>
</clipPath>
</defs>
</svg>
