<svg width="60" height="60" viewBox="0 0 60 60" fill="none" xmlns="http://www.w3.org/2000/svg">
<path d="M58.4767 5.76601C57.4929 4.78209 56.1848 4.24034 54.7933 4.24034C53.4018 4.24034 52.0938 4.78223 51.1098 5.76601L26.0625 30.8132C25.873 31.0027 25.7382 31.2399 25.6723 31.4996L23.8832 38.5506C23.8628 38.6313 23.8516 38.7126 23.8449 38.7938H21.207V43.0354H25.4486V40.3975C25.53 40.3908 25.6112 40.3798 25.6918 40.3594L32.7426 38.5703C33.0025 38.5043 33.2396 38.3695 33.429 38.18L58.4767 13.1327C60.5075 11.1016 60.5075 7.79695 58.4767 5.76601ZM54.7933 7.21681C55.3896 7.21681 55.9501 7.44899 56.3718 7.87063C57.2423 8.74114 57.2423 10.1574 56.3718 11.0278L56.2665 11.133L53.1094 7.97585L53.2146 7.87063C53.6362 7.44899 54.1969 7.21681 54.7933 7.21681ZM29.2196 31.8656L51.0046 10.0808L54.1618 13.2379L32.3768 35.0227L29.2196 31.8656ZM27.9137 34.7691L29.4734 36.3289L27.3834 36.8592L27.9137 34.7691Z" fill="black"/>
<path d="M21.2083 43.0354H16.9668V47.2769H21.2083V43.0354Z" fill="black"/>
<path d="M16.9661 47.2769H12.7246V51.5184H16.9661V47.2769Z" fill="black"/>
<path d="M12.724 51.5183H8.48242V55.7597H12.724V51.5183Z" fill="black"/>
<path d="M8.48372 47.2769H4.24219V51.5184H8.48372V47.2769Z" fill="black"/>
<path d="M4.24153 43.0354H0V47.2769H4.24153V43.0354Z" fill="black"/>
</svg>
