<svg width="60" height="60" viewBox="0 0 60 60" fill="none" xmlns="http://www.w3.org/2000/svg">
<g clip-path="url(#clip0_702_1149)">
<path d="M57.0564 7.43254H2.94358C1.32461 7.43254 0 8.75715 0 10.3761V49.6239C0 51.2428 1.32461 52.5675 2.94358 52.5675H57.0564C58.6754 52.5675 60 51.2428 60 49.6239V10.3761C60 8.75715 58.6754 7.43254 57.0564 7.43254ZM20.8994 28.332L11.2347 37.9967C10.4007 38.8307 9.17416 39.1251 8.14391 38.6836C6.03434 37.8005 5.69092 35.2494 7.11366 33.8267L12.6083 28.332C13.7367 27.2036 13.7367 25.3393 12.6083 24.1619L7.0646 18.6672C5.64186 17.2445 5.98528 14.6934 8.09485 13.8103C9.17416 13.3688 10.4007 13.6631 11.1856 14.4971L20.8504 24.1619C21.4391 24.7506 21.7334 25.4865 21.7334 26.2224C21.7334 26.9583 21.4881 27.7433 20.8994 28.332ZM42.4366 38.8307H24.7751C23.1562 38.8307 21.8316 37.5061 21.8316 35.8872C21.8316 34.2682 23.1562 32.9436 24.7751 32.9436H42.4366C44.0556 32.9436 45.3802 34.2682 45.3802 35.8872C45.3802 37.5061 44.0556 38.8307 42.4366 38.8307Z" fill="black"/>
</g>
<defs>
<clipPath id="clip0_702_1149">
<rect width="60" height="60" fill="white"/>
</clipPath>
</defs>
</svg>
