<svg xmlns="http://www.w3.org/2000/svg" width="671.127" height="561.528" viewBox="0 0 177.569 148.571" xmlns:v="https://vecta.io/nano"><defs><filter id="A" x="0" y="0" width="671.126" height="461.381" filterUnits="userSpaceOnUse" color-interpolation-filters="sRGB"><feFlood flood-opacity="0" result="A"/><feColorMatrix in="SourceAlpha" values="0 0 0 0 0 0 0 0 0 0 0 0 0 0 0 0 0 0 127 0" result="B"/><feOffset/><feGaussianBlur stdDeviation="10"/><feComposite in2="B" operator="out"/><feColorMatrix values="0 0 0 0 0 0 0 0 0 0 0 0 0 0 0 0 0 0 0.25 0"/><feBlend in2="A"/><feBlend in="SourceGraphic"/></filter><filter id="B" x="377.92" y="145.499" width="244.077" height="416.03" filterUnits="userSpaceOnUse" color-interpolation-filters="sRGB"><feFlood flood-opacity="0" result="A"/><feColorMatrix in="SourceAlpha" values="0 0 0 0 0 0 0 0 0 0 0 0 0 0 0 0 0 0 127 0" result="B"/><feOffset/><feGaussianBlur stdDeviation="10"/><feComposite in2="B" operator="out"/><feColorMatrix values="0 0 0 0 0 0 0 0 0 0 0 0 0 0 0 0 0 0 0.25 0"/><feBlend in2="A"/><feBlend in="SourceGraphic"/></filter><linearGradient id="C" x1="27.558" y1="32.282" x2="602.941" y2="407.368" gradientUnits="userSpaceOnUse"><stop stop-color="#fbab7e"/><stop offset="1" stop-color="#f7ce68"/></linearGradient><linearGradient id="D" x1="397.92" y1="174.947" x2="597.272" y2="535.86" gradientUnits="userSpaceOnUse"><stop stop-color="#85ffbd"/><stop offset="1" stop-color="#fffb7d"/></linearGradient></defs><g transform="matrix(.264583 0 0 .264583 -.000001 .000001)" fill="none"><g filter="url(#A)"><rect x="20" y="20" width="631.126" height="421.381" rx="20" fill="url(#C)"/></g><g filter="url(#B)"><rect x="397.92" y="165.499" width="204.077" height="376.03" rx="20" fill="url(#D)"/></g><circle cx="53.068" cy="44.289" r="10.393" fill="#ed6b5f"/><circle cx="88.97" cy="44.289" r="10.393" fill="#f4be4f"/><circle cx="124.873" cy="44.289" r="10.393" fill="#61c555"/><rect x="416.816" y="330.563" width="164.395" height="179.512" rx="5" fill="#fff"/><rect x="78.577" y="287.102" width="217.304" height="30.234" rx="5" fill="#f7f7f7"/><g fill="#f1f1f1"><rect x="428.153" y="358.907" width="143.61" height="20.786" rx="3"/><rect x="428.153" y="396.699" width="143.61" height="20.786" rx="3"/><rect x="428.153" y="436.381" width="143.61" height="20.786" rx="3"/></g><g fill="#f7f7f7"><rect x="78.577" y="287.102" width="217.304" height="30.234" rx="5"/><rect x="78.577" y="120.818" width="217.304" height="60.467" rx="5"/><rect x="416.816" y="226.635" width="154.947" height="34.013" rx="5"/><rect x="416.816" y="270.096" width="154.947" height="11.338" rx="5"/><rect x="78.577" y="186.953" width="143.61" height="24.565" rx="5"/></g><g fill="#39b2ba"><rect x="305.329" y="287.102" width="58.578" height="30.234" rx="5"/><rect x="439.491" y="474.172" width="119.045" height="18.896" rx="3"/></g><g fill="#f1f1f1"><rect x="82.357" y="355.128" width="243.758" height="9.448" rx="3"/><rect x="82.357" y="374.024" width="243.758" height="9.448" rx="3"/><rect x="82.357" y="392.92" width="188.96" height="9.448" rx="3"/><rect x="276.986" y="392.92" width="49.13" height="9.448" rx="3"/><rect x="428.153" y="343.79" width="49.13" height="9.448" rx="3"/><rect x="428.153" y="383.472" width="49.13" height="9.448" rx="3"/><rect x="428.153" y="423.153" width="49.13" height="9.448" rx="3"/></g><g fill="#464446"><rect x="458.387" y="175.616" width="66.136" height="15.117" rx="5"/><rect x="535.861" y="175.616" width="15.117" height="15.117" rx="5"/></g></g></svg>