<svg xmlns="http://www.w3.org/2000/svg" version="1.2" baseProfile="tiny" viewBox="0 0 503 496">
  <path d="m471.4 144.7-16.5 8.5-16.6 8.4-16.7 8.3-16.7 8.3-6.7 3.3-6.6 3.6-6 3.3-4.8 2.9-1 .7-.9.7-1 .8-.8.8-1 1-.8 1-1.6 2.2-1.6 2.5-1.6 2.8-1.6 3.2-1.6 3.8-4 9.7-5.3 13.2-5 12.6-3.8 9.2-3.4 8.3-3.3 7.6-3.3 7.3-3.2 6.8-3.2 6.6-3.3 6.3-.2.1h-.3l-.1-.2-.7-13.2-.3-9.8-.3-9v-47.8l-.1-.2-.2-.4-.4-.3h-.8l-67.6 34-.2.2-.2.2v.3l-.1.2V473l.2.4.4.3h.8l14.3-6.8 14.3-7 14.3-7.3 14.2-7.3.6-.4.7-.5.7-.6.7-.7 1.4-1.8 1.6-2.1 1-1.8 1-2 1-2 .9-2.2.8-2.3.8-2.6.8-3 1-4 1.7-6.7.8-2.7.8-2.3.8-2.4.9-2.2.9-2.2 1-2 .2-.2h.2l.1.5.2 1.7.1 6.7.1 11.2V444l-.1.3-.1.3-.2.2-.2.1-14 7.2-14 7.2-14 7-14.1 7-13.2 6.5-13.2 6.4h-.9l-11.7-5.7-12.8-6.4-14.2-7.2-19.5-10-18.9-9.7-13.8-7L150 434l-11.5-5.6-5.4-2.6-4.7-2.5-4.1-2.2-3.5-2-4.8-3-5-3.2-5-3.4-5.2-3.8-5.4-4-5.7-4.6-6.2-5L76 386l-.4-.2h-.4l-3.2.4-3.3.3-3.3.1-3.4-.1-3.3-.3-3.4-.5-3.4-.7-3.3-.9-3.3-1-3.3-1.3-3.2-1.4-3.2-1.7-3.1-1.8-3.1-2-3-2-3-2.4-2.8-2.4-2.7-2.6-.2-.3v-.3l-.3-3-.3-3.7-.1-4.4-.2-5.1-.3-15.4L16 318l-.2-15.3-.1-15.3V263l.1-24.2.3-35.3.2-27.3v-26l-.2-4.7-.2-8.1V131.6l.1-.2.1-.3.2-.2.2-.1 13.9-7.5 14.7-7.9 15.7-8.2 16.7-8.6L95 89.7l19-9.6 21.1-10.5 28.5-14.1 39.3-19.7 26.9-13.5 3.2-1.6 3.1-1.5 3.2-1.4 3-1.2 3.2-1.2 3-1 3-.9 3-.8h.5l4.8 1.7 5 1.9 5 2 5.3 2.4 5.3 2.5 5.8 2.9 6.4 3.2 8.7 4.6 11.8 6 8.7 4.4 18 8.9 19.5 9.6 21 10.7L408.6 88l26.7 13.6 19.6 10 17.9 8.9 16.6 8.1.3.2.2.3v.7l-1.8 5-1.3 3.6-1 2.7-.7 2.4-.6 2.3-.5 2.1-.4 2.2-.2 2-.1 2.1v2.1l.1 2.1.3 2.2.3 2.2 1.4 6.9 2 9.4 1.2 7 1 6.6.9 6 .5 5.7.3 5.5v7.6l-.1 2.4-.2 2.5-.3 2.3-.3 2.3-.4 2.2-.4 2.2-.6 2.1-.6 2-.6 2-.7 2-.8 1.8-.9 1.8-1 1.8-1 1.6-1 1.7-1.1 1.6-1.2 1.5-1.8 2-1.9 1.8-2 1.8-2.2 1.7-4.4 3.1-4.4 3-4.3 2.7-4.2 2.5-4 2.2-4.2 2.1-4 1.9-4 1.7-4 1.5-4 1.3-4 1.1-3.9 1-4 .7-4 .6-3.9.3-3.9.2h-3.6l-3.7-.1-3.6-.3-3.7-.5h-.3l-.3.1-.2.2-.2.2-12.7 20.6-.2.4v.4l.3.4.3.2 24.3 12 24.3 12.1 22 11 11 5.7 11 5.8 11 5.8 10.8 6 .6.4.2.3v.4l-.2.2-.6.5-12 6.4-12.2 6.4-12.3 6.2-12.2 6.2-36.6 18.2-36.4 18.3-.5.1h-.4l-30.4-14.2-.4-.3-.4-.2-.1-.2-.1-.3v-.2l.3-.2.3-.2.4-.3 12.8-5.5.4-.3.2-.3v-.4l-.1-.4-13.8-21.3-.4-.5-.3-.3-.3-.2h-.3l-.2.1-.1.3-.2.4v.7l-.7 4.7-.8 4.8-.3 1.2-.4 1-.6 1-.7.7-.8.5-3 1.6-3 1.5h-.8l-.4-.4-.1-.4v-.2l2-43 .1-.6.1-.5.2-.3.2-.2h.2l.3.2.4.4.4.5 7 9.9 7 10 6.9 10 6.9 10 6.8 10 6.8 10.2.2.2.3.2h.4l.3-.1 28-14 20.9-10.5 15.2-7.7 13.6-7 12.4-6.7L475 365l.5-.4.2-.2V364.1l-.2-.2-.5-.4-14.6-6.8-14.6-7-14.5-7-14.5-7.3-13-6.5-13-6.7-12.8-6.7-12.9-6.9-.3-.3-.2-.3v-.4l.1-.4 107.7-161.3.4-.6.2-.4V144.3h-.5l-.5.1-.6.3ZM253 21.7l-.4-.1h-.4L191.4 52l-45.7 22.9-41.2 20.8L66.8 115l-.4.3-.1.2v.2l.2.2h.2l60.8-14.6 11.8-2.9 10.3-2.7L159 93l4.4-1.3 4.3-1.4 4.1-1.4 4-1.4 4-1.5 3.7-1.5 3.7-1.5 3.6-1.5 3.4-1.6 3.3-1.6 17.1-8.5 17-8.7 12.6-6.6 12.6-6.6 12.5-6.6 12.5-6.8.4-.3.3-.2.1-.2.1-.3v-.2l-.3-.2-.3-.2-.4-.2-28.6-11ZM314.3 55l.2-.7.2-.8V52l-.2-.9-.2-.8-.4-.8-.4-.8-.5-.8-.7-.7-.6-.7-.8-.7-.8-.6-.9-.6-1-.4-.9-.5-1-.3-1-.3-1-.2h-1l-1-.1h-1l-1 .2-.8.2-.9.3-.8.3-.8.5-.6.5-.6.5-.6.6-.4.7-.3.7-.3.8-.1.8v1.6l.1.8.3.9.3.8.5.8.5.8.6.7.7.7.8.7.8.6.8.5 1 .5 1 .4 1 .4 1 .3 1 .2h1l1 .1h1l.9-.2.9-.2.9-.3.8-.3.7-.5.7-.5.6-.5.5-.7.5-.6.3-.8Zm-93.1 21.4v.2l.1.2h.2l.2.1h.1l64.6-15.1.4-.1.2-.3.2-.2v-.4l.1-16.3v-.1l-.2-.4-.3-.3-.4-.2-.4.1-2.8 1.1-3.3 1.6-2.3 1.1L253 59.7l-17.6 9-6.2 3.1-4.5 2.4-2.7 1.6-.7.4-.2.3Zm61.9 137.3 7-7.3 9.4-9.4 25.2-25.2 34-33.6L401.5 96l.2-.4V95l-.3-.3-.2-.1L330.6 59h-.7l-54.5 13.9-45.5 11.7-33.4 8.5-30.2 7.5-27.7 6.9-26.8 6.5-25.6 6.1-24.5 5.7-23.6 5.3-2.6.7-.5.1-.4.2-.2.2-.1.2v.3l.2.2.3.3.5.3 16.3 8.6 16.3 8.4 15.1 7.6 15.2 7.4.4.1h.4l13.3-4.7 19-6.6 13.8-4.7 12.5-4.2 11.5-3.7 11.3-3.4 10.7-3.1 10.2-2.8 10-2.5.8-.2h1l1-.1h1l1.2.2 1.2.1 2.5.6 2.9.9 3 1.1 3.3 1.4 3.4 1.6 7 3.6 6.8 3.6 6.8 3.8 6.8 3.8.3.3.2.4v.4l-.3.4-.1.2-74 56-.2.4-.1.4v.5l.3.3.2.2 66.4 33.4H253.7l.3-.2 7.5-7.4 7.4-7.3 7.2-7.3 7-7.3ZM421.8 104l-.7-.3-.6-.2-.6-.1h-.7l-1 .1-.6.2-.5.2-1 .6-.8.8-.7 1-.5 1-.3 1.2v1.1l.1 2 .4 2.5.5 2.8.8 3.4.1.3.3.3.3.1h.3l2-.3 1.8-.3 1.8-.5 1.8-.6 1.6-.8 1.6-.8 1.6-.9 1.5-1 .2-.2.1-.3v-.7l-.5-1.2-.5-1.1-.6-1.2-.7-1-.7-1-.8-1-.8-.8-.8-.8-1.6-1.3-1.8-1.2ZM357.3 151l-.6.7-.6.7-.4.5-.1.4v.3H356.2l.6-.3.8-.4 47.3-23.8.2-.2.2-.2.1-.3v-.3l-.3-5.2-.2-5.1-.1-5.7v-6.7l-.2-.3-.2-.1h-.5l-.4.3-.4.3-11.4 11.2-11.5 11.2-11.4 11.5-11.5 11.5Zm117.6-19-27-13.8-.5-.1h-.4l-34.5 17.7-12 6-12 6-11.3 5.3-11.1 5.3-11.3 5.2-11.3 5-.4.3-.3.2-.1.2-.1.2v.2l.2.3.3.2.3.2 26 15.5h.3l.3.1h.2l.3-.1 19.6-10 19.6-10 19.7-10 19.8-9.7 25.7-12.5.4-.2.3-.2.2-.2v-.5l-.2-.2-.3-.2-.4-.3Zm-372.3 43.8.4 26v.1l.2.4.3.3.4.1h.4l103.3-33.2.3-.2.2-.2.1-.2.1-.3 2.4-28.5v-.4l-.3-.4-.4-.2H209.4l-23.3 7.6-23.3 7.7-29.8 10.2-29.7 10.3-.3.1-.2.3-.2.2v.3Zm-9.4-1.9v-.2l-.3-.2-66.6-34H26l-.2.1V140l1.8 29.6v.2l.3.2 65 32 .3.1h.2l.2-.2v-.2l-.3-27.7Zm150.1-22.5-2.3-1.5-2.4-1.2-2.5-1.1-2.5-.9-1.4-.4-1.4-.3-1.5-.3-1.4-.2-1.5-.1-1.5-.1h-3.4l-.3.2-.2.3-.1.3-.3 2-.2 2-.1 2-.1 2v2.2l.1 2.2.2 2.2.2 2.2.1.3.2.3.3.2h.3l1.3.1h2.6l1.3-.2 1.2-.2 1.2-.2 1.1-.4 1.2-.4 2-.8 2-1.1 1.8-1.4 1.8-1.5 2.3-2.3 2.1-2.5.2-.3v-.8l-.3-.3Zm229.3 12-5.3 7.2-5.2 7.2-5 7.3-5 7.2-.5.9-.4 1-.3 1-.2 1-.2 1.2v2.8l.2 2 .1 1.7.5 8.7.1 12.4v12.4l-.2 12.3-.4 12.4v.6l.1.2.2.2h.4l.6-.4 4.5-3.2 4.4-3.4 4.4-3.4 4.3-3.5 2-1.9 1.9-1.9 1.5-2 1.4-2 .7-1.3.7-1.3.6-1.4.5-1.5.5-1.5.4-1.6.3-1.7.3-1.8.6-4 .4-4.2.3-4.1.2-4.2v-5.6l-.1-2.8-.2-2.8-.2-2.8-.3-2.8-.4-2.8-.4-2.8-1.2-6.8-1.4-6.8-1.7-6.6-1.8-6.5-.1-.4-.2-.4-.2-.2h-.7l-.3.3-.3.4Zm-417 62.9.2-.2v-.3l.9-31.1-.1-.3-.2-.2-29.7-16H26.4l-.2.1-.2.2v.2l.3 61.6v.1l.1.3h.2l.2.1h.3l28.5-14.5ZM339.4 256l6.4-15.8 6.3-15.8 6.5-15.7 6.5-15.8.1-.3v-.4l-.2-.4-.4-.2-6-2.7-6-2.6-4.6-2-4.6-1.8-4.7-1.8-4.7-1.8h-.8l-.3.2-.2.4-7.6 17.7v.8l.2.3 11.2 13 .1.4v.3l.3 45.2v1.7l.2.5.1.1h.4l.3-.4.4-.6.5-1 .6-1.5Zm-199-43.4-1.6-1-1.6-.8-1.6-.7-1.6-.6-1.6-.4-1.6-.4-1.5-.3-1.7-.2-1.7-.1h-3.5l-1.8.2-1.8.2-2 .3-1.9.4-2 .5-4.6 1.2-6.1 2-3.3 1h-.7l-32.6-15.3H65l-.4.1-.3.4-.1.4-.4 26.1v.3l.2.3.1.2.3.1 65.9 33 .5.1h.4l.3-.3.2-.4 4.2-14 .2-.3.3-.3 35-17.7.3-.1.1-.2.1-.3v-.3l.1-16.4.1-.5.3-.3 16.8-13.7 16.5-13.5.7-.6.1-.3v-.1h-.9l-.4.2-16 8-16 8-16 8-15.9 8.1-.2.1h-.5l-.3-.1Zm154 1.7-1.2 1.5-1 1.6-1.1 1.7-1 1.7-.2.4-.1.4v.5l.3.1.2.1h.8l3.5-.7 3.3-1 3.3-1.1 3.1-1.3 3-1.6 2.8-1.7 2.8-2 2.7-2 .2-.4.1-.4v-.3l-.3-.4-1.2-1.2-1.3-1-.7-.4-.7-.3-.7-.2-.7-.2-.9-.2h-1.8l-.9.1-.9.2-1 .3-1 .4-.9.5-1.2.6-1.2.8-1.1.7-1.1.9-1 .8-1 1-1 1-1 1Zm149.3-6.2-6.2 8-6 8-5.8 8.2-5.7 8.2-5.6 8.4-5.3 8.4-5.3 8.6-5 8.7-.3.6v.4l.2.1.3.1h.6l3.4-.5 3.4-.4 3.4-.3 3.4-.2 3-.1 2.9-.4 2.5-.4 2.4-.6 2.2-.8 2-1 1.9-1 1.6-1.3 1.1-1 1-1 1-1 .8-1.3.8-1.3.7-1.3.7-1.5.6-1.5 1-2.7.9-2.6.7-2.5.7-2.5.5-2.3.5-2.3.3-2.2.2-2.2.6-7.8.5-7.7.5-7.8.3-7.7v-1l-.1-.2-.2-.1h-.2l-.3.1-.6.7Zm-194 43.5L180.8 217h-.7l-.4.1-.3.4v.4l.1 12.1.4 16.4.3 16.5.2 12v21l-.2 9.7-.3 9.4-.4 9-.6 8.8-.3 2.8-.2 1.3-.3 1.3-.4 1.3-.4 1.2-.4 1.2-.5 1.2-.6 1-.6 1.2-.7 1-.7 1-.8.9-.8.9-.8.8-1 .8-1.1.9-1.3.8-1.3.7-1.3.6-1.5.5-1.4.5-1.6.3-1.5.3-1.6.2h-3.2l-1.7-.1-1.7-.2-1.7-.3-1.7-.5-1.8-.5-3-1-3-1.1-2.8-1.2-2.8-1.4-2.7-1.4-2.5-1.5-2.5-1.7-2.5-1.7-2.6-2-2.5-2.3-2.4-2.4-2.4-2.5-2.2-2.6-2.1-2.8-2.1-3-2-3.2-2-3.2-1.8-3.5-1.9-3.7-1.7-3.9-1.8-4.1-1.8-4.5-1.7-4.8-1.9-5.3-.2-.3-.3-.2L27.7 257l-.8-.2h-.4l-.2.2v1l.3 3.7.5 3.7.6 3.7.6 3.6.7 3.7.8 3.6.8 3.6 1 3.6 1 3.6 1 3.6 1 3.6 1.2 3.5L37 305l1.3 3.5 1.4 3.5 1.4 3.4 1.4 3.5 1.6 3.4 1.6 3.3 1.6 3.3 1.8 3.4 1.8 3.3 1.8 3.2 1.9 3.2 2 3.2 2 3.1 2 3.1 2.2 3 2.1 3.1 2.3 3 2.3 3 2.3 2.8 2.4 2.9 2.4 2.8 2.5 2.7 2.5 2.8 2.6 2.6 2.6 2.6 2.7 2.6 2.7 2.5 2.8 2.4 2.8 2.4 2.8 2.4 2.9 2.3 3 2.2 2.9 2.2 3 2.1 3 2 3 2 3.2 2 3.1 2 3.2 1.7 3.2 1.8 3.2 1.7 3.3 1.6 3.2 1.6 3.3 1.5 3.4 1.5 3.3 1.4 3.4 1.3 3.4 1.3 3.5 1.1 3.4 1.2 3.5 1 6 1.7 6 1.4 2.5.6 2.5.4 2.4.3 2.4.2 2.4.1H196.9l2.3-.2 2.3-.3 2.2-.4 2.3-.4 2.2-.6 2.1-.7 2.1-.7 2-.8 2-1 2.9-1.5 2.7-1.7 2.6-1.8 2.5-2 2.4-2.3 2.2-2.4 2.1-2.5 2-2.7 1.8-2.8 1.7-3 1.6-3 1.3-3.3 1.3-3.3 1-3.5 1-3.5.7-3.6.7-4.4.7-4.5.6-4.5.5-4.6.5-4.7.4-4.8.3-5 .3-5 .2-5 .1-5.4.1-5.5v-5.7l-.1-12.3-.4-14.3-.1-3.4-.2-10.7v-11l.1-11.3.4-12.5v-.3l-.2-.2-.1-.3-.3-.1Zm-106.4 5-.6 11-.3 11 .1.5.3.4.4.2h.5l.2-.1 27.6-15h.2l.2-.3v-.2l.1-.3-.1-27-.1-.7-.2-.2-.1-.1h-.5l-.6.2-26.3 15.5-.3.3-.2.4-.3 4.4Zm-39.7-.9-4.1-2.3-4.2-2.2-4.3-2.1-4.2-2-6-2.9-6-2.6-6-2.6-6.2-2.4H62l-3.3.7-3.3.8-3.2 1-3.3 1-8.4 3.1-8.4 3.3-.6.3-.1.2v.5l.6.4 15.7 8.7 15.8 8.6 4.6 2.4 4.6 2.3 4.7 2.1 4.8 2 4 1.7 4.1 1.5 4.1 1.4 4.2 1.3h.5l5.2-1.6 5.1-1.7 4.4-1.5 4.4-1.6 4.3-1.6 4.3-1.6.4-.3.3-.2.2-.2v-.4l-.1-.3-.3-.2-.4-.3-23.3-12.7Zm22.2 76.4 2 1.8 2.2 1.8 2.4 1.8 2.5 1.6 2.4 1.5 2.5 1.3 2.4 1 2.4 1 2.2.7 2.2.5 2 .3h3.8l1.6-.3 1.7-.5 1.4-.7 3-1.7 3.4-2.2 3.7-2.5 4-2.9.3-.3v-.8l-.2-.4-10-8.9-2.7-2.4-2.5-2.4-2.5-2.6-2.3-2.6-2.2-2.6-2.2-2.7-2-2.8-2-2.9-2-3-1.9-3.3-1.8-3.3-1.7-3.3-1.5-3.4-1.5-3.6-1.3-3.5-1.3-3.7-.3-.4-.3-.2h-.8L102 292.4l-.3.2-.1.4v.7l3.2 7 2.9 5.9 1.4 2.7 1.4 2.6 1.5 2.5 1.4 2.4 1.5 2.3 1.5 2.1 1.5 2.1 1.5 2 1.5 1.9 1.6 1.8 1.6 1.7 1.7 1.6Zm45.7-13.7v-11.8l.2-16 .2-14.4v-.7l-.2-.3-.1-.1h-.5l-.7.2-23.9 13.7-.3.3-.1.4v.4l.2.4 23.8 28.1.2.2.4.1h.5l.2-.1v-.2l.1-.2ZM41.4 370.2l16.7 5.9h.5l.4.1h.2l.3-.1v-.9l-.2-.5-3.2-7.4L53 360l-3.3-7.2-3.4-7-9.5-19.4-9.6-19-.5-.8-.4-.6-.3-.3h-.3l-.2.1-.1.5v1.7L27 364v.3l.2.3.2.2.2.1 6.8 2.6 6.9 2.6ZM196 449.4l6.8 3 6.8 3 6.8 3 6.7 3 12.8 6.2 12.7 6.3H249.2l.5-.1.2-.4.1-.4v-10.7l.1-10.8.2-9.9.2-10 .3-9.9.5-9.9v-1.3l-.2-.4-.2-.2h-.3l-.3.3-.4.4-.4.6-1.5 2-1.5 2-1.5 1.9-1.6 1.8-1.6 1.9-1.7 1.7-1.7 1.7-1.8 1.7-2.8 2.4-2.8 2.3-3 2.1-3 2-3.2 2-3.3 1.8-3.3 1.7-3.5 1.6-3.9 1.6-3.9 1.6-3.9 1.5-4 1.4-.7.4-.2.1v.4l.2.2.7.4Z"/>
  <path fill="#000000" d="m255.4 117-.3-.2-.3-.2-.1-.2v-.5l.2-.2.2-.2.4-.2 17.2-7.9h.7l.4.2.2.3 7.4 14.9.2.3.3.2h.8l18.1-9.5.4-.2.3-.2.1-.2v-.5l-.2-.2-.2-.2-.4-.2-16.6-8-.5-.3-.3-.2-.3-.3v-.5l.3-.2.5-.2.5-.1 58.3-16 .7-.2.6-.1h.3l.2.2v.2l-.2.3-.3.4-.6.5-6.8 6.1-7 6-7 5.9-7.2 5.7-7.3 5.7-7.5 5.6-7.6 5.5-7.6 5.4-.3.1h-.8L255.4 117Z"/>
</svg>
