<svg width="374" height="316" viewBox="0 0 374 316" fill="none" xmlns="http://www.w3.org/2000/svg">
<g filter="url(#filter0_d_144_28)">
<rect x="20" y="20" width="334" height="223" rx="20" fill="url(#paint0_linear_144_28)"/>
</g>
<g filter="url(#filter1_d_144_28)">
<rect x="220" y="97" width="108" height="199" rx="20" fill="url(#paint1_linear_144_28)"/>
</g>
<circle cx="37.5" cy="35.5" r="5.5" fill="#ED6B5F"/>
<circle cx="56.5" cy="35.5" r="5.5" fill="#F4BE4F"/>
<circle cx="75.5" cy="35.5" r="5.5" fill="#61C555"/>
<path d="M50.872 106.928L55.024 95.84H58.024L53.896 106.928H50.872ZM50.872 113V106.928H53.896V113H50.872ZM50.872 106.928L46.72 95.84H50.296L53.896 106.928H50.872ZM67.1545 108.512V100.304H70.5385V108.512H67.1545ZM59.8825 108.512V100.304H63.2665V108.512H59.8825ZM70.5385 100.328H67.1545C67.1545 99.624 66.9785 99.08 66.6265 98.696C66.2745 98.312 65.7945 98.12 65.1865 98.12V95.48C66.2105 95.48 67.1225 95.688 67.9225 96.104C68.7385 96.52 69.3785 97.096 69.8425 97.832C70.3065 98.568 70.5385 99.4 70.5385 100.328ZM59.8825 100.328C59.8825 99.4 60.1145 98.568 60.5785 97.832C61.0425 97.096 61.6745 96.52 62.4745 96.104C63.2905 95.688 64.2105 95.48 65.2345 95.48V98.12C64.6265 98.12 64.1465 98.312 63.7945 98.696C63.4425 99.08 63.2665 99.624 63.2665 100.328H59.8825ZM70.5385 108.488C70.5385 109.432 70.3065 110.272 69.8425 111.008C69.3785 111.728 68.7385 112.304 67.9225 112.736C67.1225 113.152 66.2105 113.36 65.1865 113.36V110.72C65.7945 110.72 66.2745 110.528 66.6265 110.144C66.9785 109.744 67.1545 109.192 67.1545 108.488H70.5385ZM59.8825 108.488H63.2665C63.2665 109.192 63.4425 109.744 63.7945 110.144C64.1465 110.528 64.6265 110.72 65.2345 110.72V113.36C64.2105 113.36 63.2905 113.152 62.4745 112.736C61.6745 112.304 61.0425 111.728 60.5785 111.008C60.1145 110.272 59.8825 109.432 59.8825 108.488ZM80.5396 108.536V95.84H83.9236V108.536H80.5396ZM73.2916 108.536V95.84H76.6756V108.536H73.2916ZM83.9236 108.512C83.9236 109.456 83.6916 110.296 83.2276 111.032C82.7636 111.752 82.1316 112.328 81.3316 112.76C80.5316 113.176 79.6196 113.384 78.5956 113.384V110.72C79.2036 110.72 79.6756 110.528 80.0116 110.144C80.3636 109.76 80.5396 109.216 80.5396 108.512H83.9236ZM73.2916 108.512H76.6756C76.6756 109.216 76.8516 109.76 77.2036 110.144C77.5556 110.528 78.0356 110.72 78.6436 110.72V113.384C77.6196 113.384 76.6996 113.176 75.8836 112.76C75.0836 112.328 74.4516 111.752 73.9876 111.032C73.5236 110.296 73.2916 109.456 73.2916 108.512ZM93.703 113L90.703 104.96H93.991L97.015 113H93.703ZM89.791 106.424V103.784H91.399V106.424H89.791ZM89.791 98.48V95.84H91.399V98.48H89.791ZM93.343 101.6V100.664H96.727V101.6H93.343ZM96.727 100.688H93.343C93.343 99.984 93.167 99.44 92.815 99.056C92.463 98.672 91.983 98.48 91.375 98.48V95.84C92.399 95.84 93.311 96.048 94.111 96.464C94.927 96.88 95.567 97.456 96.031 98.192C96.495 98.928 96.727 99.76 96.727 100.688ZM96.727 101.576C96.727 102.504 96.495 103.336 96.031 104.072C95.567 104.808 94.927 105.384 94.111 105.8C93.311 106.216 92.399 106.424 91.375 106.424V103.784C91.983 103.784 92.463 103.592 92.815 103.208C93.167 102.824 93.343 102.28 93.343 101.576H96.727ZM86.815 113V95.84H90.199V113H86.815ZM106.843 110.072V107.432H112.987V110.072H106.843ZM111.091 95.84L106.867 113H103.579L107.827 95.84H111.091ZM111.139 95.84L115.387 113H112.123L107.875 95.84H111.139ZM122.95 113L126.694 95.84H129.262L125.518 113H122.95ZM122.854 113L119.11 95.84H121.678L125.422 113H122.854ZM117.19 113V95.84H120.574V113H117.19ZM127.798 113V95.84H131.182V113H127.798ZM136.609 110.072V107.432H142.753V110.072H136.609ZM140.857 95.84L136.633 113H133.345L137.593 95.84H140.857ZM140.905 95.84L145.153 113H141.889L137.641 95.84H140.905ZM146.827 110.36L153.211 98.48H156.835L150.475 110.36H146.827ZM146.827 113V110.36H156.835V113H146.827ZM146.827 98.48V95.84H156.835V98.48H146.827ZM159.477 113V95.84H162.861V113H159.477ZM173.426 113L166.61 95.84H169.562L176.378 113H173.426ZM166.034 113V95.84H169.418V113H166.034ZM174.242 113V95.84H177.626V113H174.242ZM185.295 106.16V103.52H190.911V106.16H185.295ZM187.527 108.536V103.592H190.911V108.536H187.527ZM180.255 108.536V100.304H183.639V108.536H180.255ZM180.255 100.304C180.255 99.376 180.487 98.544 180.951 97.808C181.415 97.072 182.047 96.496 182.847 96.08C183.663 95.664 184.583 95.456 185.607 95.456V98.096C184.999 98.096 184.519 98.288 184.167 98.672C183.815 99.056 183.639 99.6 183.639 100.304H180.255ZM180.255 108.512H183.639C183.639 109.216 183.815 109.768 184.167 110.168C184.519 110.552 184.999 110.744 185.607 110.744V113.384C184.583 113.384 183.663 113.176 182.847 112.76C182.047 112.328 181.415 111.752 180.951 111.032C180.487 110.296 180.255 109.456 180.255 108.512ZM187.983 101.072C187.919 100.144 187.671 99.416 187.239 98.888C186.823 98.36 186.271 98.096 185.583 98.096V95.456C187.135 95.456 188.383 95.904 189.327 96.8C190.287 97.68 190.855 98.92 191.031 100.52L187.983 101.072ZM190.911 108.512C190.911 109.456 190.679 110.296 190.215 111.032C189.751 111.752 189.119 112.328 188.319 112.76C187.519 113.176 186.607 113.384 185.583 113.384V110.744C186.191 110.744 186.663 110.552 186.999 110.168C187.351 109.768 187.527 109.216 187.527 108.512H190.911ZM52.555 139V121.84H55.939V139H52.555ZM65.8079 134.176V126.688H69.1919V134.176H65.8079ZM61.9679 139V136.36H63.8639V139H61.9679ZM61.9679 124.48V121.84H63.8639V124.48H61.9679ZM61.9679 124.48V121.84H63.8639V124.48H61.9679ZM69.1919 126.688H65.8079C65.8079 125.984 65.6319 125.44 65.2799 125.056C64.9439 124.672 64.4719 124.48 63.8639 124.48V121.84C64.8879 121.84 65.7999 122.048 66.5999 122.464C67.3999 122.88 68.0319 123.456 68.4959 124.192C68.9599 124.928 69.1919 125.76 69.1919 126.688ZM69.1919 134.128C69.1919 135.072 68.9599 135.912 68.4959 136.648C68.0319 137.368 67.3999 137.944 66.5999 138.376C65.7999 138.792 64.8879 139 63.8639 139V136.36C64.4719 136.36 64.9439 136.168 65.2799 135.784C65.6319 135.384 65.8079 134.832 65.8079 134.128H69.1919ZM59.1119 139V121.84H62.4959V139H59.1119ZM74.3796 139V136.36H80.6676V139H74.3796ZM74.4996 131.752V129.088H79.2276V131.752H74.4996ZM71.9556 121.84H75.3396V139H71.9556V121.84ZM74.6196 121.84H80.4276V124.48H74.6196V121.84ZM85.2574 136.072V133.432H91.4014V136.072H85.2574ZM89.5054 121.84L85.2814 139H81.9934L86.2414 121.84H89.5054ZM89.5534 121.84L93.8014 139H90.5374L86.2894 121.84H89.5534ZM102.303 134.944C102.303 134.4 102.127 133.928 101.775 133.528C101.423 133.128 100.975 132.752 100.431 132.4C99.8869 132.048 99.3029 131.688 98.6789 131.32C98.0709 130.936 97.4949 130.504 96.9509 130.024C96.4069 129.528 95.9589 128.952 95.6069 128.296C95.2709 127.624 95.1029 126.816 95.1029 125.872H98.4869C98.4869 126.4 98.6549 126.872 98.9909 127.288C99.3429 127.688 99.7909 128.064 100.335 128.416C100.879 128.768 101.455 129.136 102.063 129.52C102.687 129.888 103.271 130.32 103.815 130.816C104.359 131.296 104.807 131.872 105.159 132.544C105.511 133.2 105.687 134 105.687 134.944H102.303ZM95.1029 125.896C95.1029 125.016 95.3349 124.248 95.7989 123.592C96.2629 122.936 96.8949 122.416 97.6949 122.032C98.5109 121.648 99.4309 121.456 100.455 121.456V124.096C99.8469 124.096 99.3669 124.256 99.0149 124.576C98.6629 124.896 98.4869 125.336 98.4869 125.896H95.1029ZM105.687 134.944C105.687 135.808 105.455 136.576 104.991 137.248C104.527 137.904 103.887 138.424 103.071 138.808C102.271 139.192 101.359 139.384 100.335 139.384V136.72C100.943 136.72 101.423 136.568 101.775 136.264C102.127 135.944 102.303 135.504 102.303 134.944H105.687ZM102.231 126.064C102.151 125.424 101.951 124.936 101.631 124.6C101.311 124.264 100.919 124.096 100.455 124.096V121.456C101.303 121.456 102.063 121.624 102.735 121.96C103.407 122.28 103.959 122.744 104.391 123.352C104.823 123.944 105.103 124.664 105.231 125.512L102.231 126.064ZM97.9349 133.744C97.9989 134.688 98.2389 135.424 98.6549 135.952C99.0869 136.464 99.6469 136.72 100.335 136.72V139.384C98.7829 139.384 97.5269 138.936 96.5669 138.04C95.6069 137.144 95.0469 135.896 94.8869 134.296L97.9349 133.744Z" fill="#464646"/>
<rect x="230" y="187" width="87" height="95" rx="5" fill="white"/>
<path d="M233.248 150.952L236.016 143.56H238.016L235.264 150.952H233.248ZM233.248 155V150.952H235.264V155H233.248ZM233.248 150.952L230.48 143.56H232.864L235.264 150.952H233.248ZM244.103 152.008V146.536H246.359V152.008H244.103ZM239.255 152.008V146.536H241.511V152.008H239.255ZM246.359 146.552H244.103C244.103 146.083 243.986 145.72 243.751 145.464C243.516 145.208 243.196 145.08 242.791 145.08V143.32C243.474 143.32 244.082 143.459 244.615 143.736C245.159 144.013 245.586 144.397 245.895 144.888C246.204 145.379 246.359 145.933 246.359 146.552ZM239.255 146.552C239.255 145.933 239.41 145.379 239.719 144.888C240.028 144.397 240.45 144.013 240.983 143.736C241.527 143.459 242.14 143.32 242.823 143.32V145.08C242.418 145.08 242.098 145.208 241.863 145.464C241.628 145.72 241.511 146.083 241.511 146.552H239.255ZM246.359 151.992C246.359 152.621 246.204 153.181 245.895 153.672C245.586 154.152 245.159 154.536 244.615 154.824C244.082 155.101 243.474 155.24 242.791 155.24V153.48C243.196 153.48 243.516 153.352 243.751 153.096C243.986 152.829 244.103 152.461 244.103 151.992H246.359ZM239.255 151.992H241.511C241.511 152.461 241.628 152.829 241.863 153.096C242.098 153.352 242.418 153.48 242.823 153.48V155.24C242.14 155.24 241.527 155.101 240.983 154.824C240.45 154.536 240.028 154.152 239.719 153.672C239.41 153.181 239.255 152.621 239.255 151.992ZM253.026 152.024V143.56H255.282V152.024H253.026ZM248.194 152.024V143.56H250.45V152.024H248.194ZM255.282 152.008C255.282 152.637 255.128 153.197 254.818 153.688C254.509 154.168 254.088 154.552 253.554 154.84C253.021 155.117 252.413 155.256 251.73 155.256V153.48C252.136 153.48 252.45 153.352 252.674 153.096C252.909 152.84 253.026 152.477 253.026 152.008H255.282ZM248.194 152.008H250.45C250.45 152.477 250.568 152.84 250.802 153.096C251.037 153.352 251.357 153.48 251.762 153.48V155.256C251.08 155.256 250.466 155.117 249.922 154.84C249.389 154.552 248.968 154.168 248.658 153.688C248.349 153.197 248.194 152.637 248.194 152.008ZM261.802 155L259.802 149.64H261.994L264.01 155H261.802ZM259.194 150.616V148.856H260.266V150.616H259.194ZM259.194 145.32V143.56H260.266V145.32H259.194ZM261.562 147.4V146.776H263.818V147.4H261.562ZM263.818 146.792H261.562C261.562 146.323 261.445 145.96 261.21 145.704C260.975 145.448 260.655 145.32 260.25 145.32V143.56C260.933 143.56 261.541 143.699 262.074 143.976C262.618 144.253 263.045 144.637 263.354 145.128C263.663 145.619 263.818 146.173 263.818 146.792ZM263.818 147.384C263.818 148.003 263.663 148.557 263.354 149.048C263.045 149.539 262.618 149.923 262.074 150.2C261.541 150.477 260.933 150.616 260.25 150.616V148.856C260.655 148.856 260.975 148.728 261.21 148.472C261.445 148.216 261.562 147.853 261.562 147.384H263.818ZM257.21 155V143.56H259.466V155H257.21ZM238.064 172L235.872 160.56H237.696L240 172H238.064ZM232.832 172L230.64 160.56H232.832L235.008 172H232.832ZM233.552 172L235.856 160.56H237.68L235.488 172H233.552ZM238.544 172L240.72 160.56H242.912L240.72 172H238.544ZM245.889 172V170.24H250.081V172H245.889ZM245.969 167.168V165.392H249.121V167.168H245.969ZM244.273 160.56H246.529V172H244.273V160.56ZM246.049 160.56H249.921V162.32H246.049V160.56ZM254.687 166.704V165.28C255.092 165.28 255.407 165.152 255.631 164.896C255.865 164.629 255.983 164.256 255.983 163.776H258.239C258.239 164.331 258.084 164.832 257.775 165.28C257.465 165.717 257.039 166.064 256.495 166.32C255.961 166.576 255.359 166.704 254.687 166.704ZM253.695 172V170.24H254.847V172H253.695ZM253.695 166.944V165.28H254.847V166.944H253.695ZM256.143 168.768V168.448H258.399V168.768H256.143ZM256.143 168.464C256.143 167.984 256.025 167.611 255.791 167.344C255.567 167.077 255.252 166.944 254.847 166.944V165.52C255.519 165.52 256.121 165.648 256.655 165.904C257.199 166.16 257.625 166.512 257.935 166.96C258.244 167.397 258.399 167.899 258.399 168.464H256.143ZM253.695 162.32V160.56H254.687V162.32H253.695ZM258.239 163.792H255.983C255.983 163.323 255.865 162.96 255.631 162.704C255.407 162.448 255.092 162.32 254.687 162.32V160.56C255.369 160.56 255.977 160.699 256.511 160.976C257.044 161.253 257.465 161.637 257.775 162.128C258.084 162.619 258.239 163.173 258.239 163.792ZM258.399 168.752C258.399 169.381 258.244 169.941 257.935 170.432C257.625 170.912 257.204 171.296 256.671 171.584C256.137 171.861 255.529 172 254.847 172V170.24C255.252 170.24 255.567 170.112 255.791 169.856C256.025 169.589 256.143 169.221 256.143 168.752H258.399ZM251.679 172V160.56H253.935V172H251.679ZM265.031 170.048V168.288H269.127V170.048H265.031ZM267.863 160.56L265.047 172H262.855L265.687 160.56H267.863ZM267.895 160.56L270.727 172H268.551L265.719 160.56H267.895ZM273.913 162.32V160.56H274.985V162.32H273.913ZM273.913 167.904V166.144H274.985V167.904H273.913ZM276.281 164.688V163.792H278.537V164.688H276.281ZM278.537 163.792H276.281C276.281 163.323 276.163 162.96 275.929 162.704C275.694 162.448 275.374 162.32 274.969 162.32V160.56C275.651 160.56 276.259 160.699 276.793 160.976C277.337 161.253 277.763 161.637 278.073 162.128C278.382 162.619 278.537 163.173 278.537 163.792ZM278.537 164.672C278.537 165.291 278.382 165.845 278.073 166.336C277.763 166.827 277.337 167.211 276.793 167.488C276.259 167.765 275.651 167.904 274.969 167.904V166.144C275.374 166.144 275.694 166.016 275.929 165.76C276.163 165.493 276.281 165.131 276.281 164.672H278.537ZM271.929 172V160.56H274.185V172H271.929ZM281.96 162.32V160.56H283.032V162.32H281.96ZM281.96 167.904V166.144H283.032V167.904H281.96ZM284.328 164.688V163.792H286.584V164.688H284.328ZM286.584 163.792H284.328C284.328 163.323 284.21 162.96 283.976 162.704C283.741 162.448 283.421 162.32 283.016 162.32V160.56C283.698 160.56 284.306 160.699 284.84 160.976C285.384 161.253 285.81 161.637 286.12 162.128C286.429 162.619 286.584 163.173 286.584 163.792ZM286.584 164.672C286.584 165.291 286.429 165.845 286.12 166.336C285.81 166.827 285.384 167.211 284.84 167.488C284.306 167.765 283.698 167.904 283.016 167.904V166.144C283.421 166.144 283.741 166.016 283.976 165.76C284.21 165.493 284.328 165.131 284.328 164.672H286.584ZM279.976 172V160.56H282.232V172H279.976Z" fill="#464646"/>
<rect x="51" y="164" width="115" height="16" rx="5" fill="#F7F7F7"/>
<rect x="236" y="202" width="76" height="11" rx="3" fill="#F1F1F1"/>
<rect x="236" y="222" width="76" height="11" rx="3" fill="#F1F1F1"/>
<rect x="236" y="243" width="76" height="11" rx="3" fill="#F1F1F1"/>
<rect x="51" y="164" width="115" height="16" rx="5" fill="#F7F7F7"/>
<rect x="171" y="164" width="31" height="16" rx="5" fill="#39B2BA"/>
<rect x="242" y="263" width="63" height="10" rx="3" fill="#39B2BA"/>
<rect x="53" y="200" width="129" height="5" rx="2.5" fill="#F1F1F1"/>
<rect x="53" y="210" width="129" height="5" rx="2.5" fill="#F1F1F1"/>
<rect x="53" y="220" width="100" height="5" rx="2.5" fill="#F1F1F1"/>
<rect x="156" y="220" width="26" height="5" rx="2.5" fill="#F1F1F1"/>
<rect x="236" y="194" width="26" height="5" rx="2.5" fill="#F1F1F1"/>
<rect x="236" y="215" width="26" height="5" rx="2.5" fill="#F1F1F1"/>
<rect x="236" y="236" width="26" height="5" rx="2.5" fill="#F1F1F1"/>
<rect x="252" y="105" width="35" height="8" rx="4" fill="#464446"/>
<rect x="293" y="105" width="8" height="8" rx="4" fill="#464446"/>
<defs>
<filter id="filter0_d_144_28" x="0" y="0" width="374" height="263" filterUnits="userSpaceOnUse" color-interpolation-filters="sRGB">
<feFlood flood-opacity="0" result="BackgroundImageFix"/>
<feColorMatrix in="SourceAlpha" type="matrix" values="0 0 0 0 0 0 0 0 0 0 0 0 0 0 0 0 0 0 127 0" result="hardAlpha"/>
<feOffset/>
<feGaussianBlur stdDeviation="10"/>
<feComposite in2="hardAlpha" operator="out"/>
<feColorMatrix type="matrix" values="0 0 0 0 0 0 0 0 0 0 0 0 0 0 0 0 0 0 0.25 0"/>
<feBlend mode="normal" in2="BackgroundImageFix" result="effect1_dropShadow_144_28"/>
<feBlend mode="normal" in="SourceGraphic" in2="effect1_dropShadow_144_28" result="shape"/>
</filter>
<filter id="filter1_d_144_28" x="200" y="77" width="148" height="239" filterUnits="userSpaceOnUse" color-interpolation-filters="sRGB">
<feFlood flood-opacity="0" result="BackgroundImageFix"/>
<feColorMatrix in="SourceAlpha" type="matrix" values="0 0 0 0 0 0 0 0 0 0 0 0 0 0 0 0 0 0 127 0" result="hardAlpha"/>
<feOffset/>
<feGaussianBlur stdDeviation="10"/>
<feComposite in2="hardAlpha" operator="out"/>
<feColorMatrix type="matrix" values="0 0 0 0 0 0 0 0 0 0 0 0 0 0 0 0 0 0 0.25 0"/>
<feBlend mode="normal" in2="BackgroundImageFix" result="effect1_dropShadow_144_28"/>
<feBlend mode="normal" in="SourceGraphic" in2="effect1_dropShadow_144_28" result="shape"/>
</filter>
<linearGradient id="paint0_linear_144_28" x1="24" y1="26.5" x2="328.5" y2="225" gradientUnits="userSpaceOnUse">
<stop stop-color="#FBAB7E"/>
<stop offset="1" stop-color="#F7CE68"/>
</linearGradient>
<linearGradient id="paint1_linear_144_28" x1="220" y1="102" x2="325.5" y2="293" gradientUnits="userSpaceOnUse">
<stop stop-color="#85FFBD"/>
<stop offset="1" stop-color="#FFFB7D"/>
</linearGradient>
</defs>
</svg>

